<svg xmlns="http://www.w3.org/2000/svg" viewBox="0 0 1621.44 343.38"><defs><style>.cls-1{fill:#f1545b;}</style></defs><title>logo_red</title><g id="Layer_2" data-name="Layer 2"><g id="Logo"><g id="LogoType"><path class="cls-1" d="M0,9.15C15.64,5.61,39.84,3.54,61.67,3.54c59,0,94.43,19.48,94.43,69.05,0,30.39-13,50.46-33.34,61.38L172,213.64c-3.84,2.66-12.1,4.13-23.61,4.13-13,0-21.54-1.47-27.74-4.13l-41-69.05H75c-10,0-23.31-.89-30.39-2.07v71.41c-4.13,2.36-11.51,3.84-22.13,3.84-10.33,0-18-1.47-22.42-3.84ZM44.26,43.38v61.67a154.64,154.64,0,0,0,25.38,2.07C95.31,107.12,111,98,111,75c0-23.61-16.52-33.34-46-33.34A117,117,0,0,0,44.26,43.38Z"/><path class="cls-1" d="M229,157c1.77,20.66,16.52,30.69,45.74,30.69,18.89,0,35.41-4.13,46-8.85.88,11.21-3.84,25.67-10.62,33.34-9.74,5.61-26.26,10.33-46.62,10.33-51.64,0-79.08-29.8-79.08-77.61,0-49.28,29.51-81.15,75.84-81.15,43.08,0,62.85,26.56,62.85,65.51A91.06,91.06,0,0,1,318.69,157Zm54-31c2.36-15.34-3.25-30.39-24.49-30.39-18.3,0-29.51,11.8-30.69,30.39Z"/><path class="cls-1" d="M414.6,184.72a310.38,310.38,0,0,1,8.56-38.07l22.42-76.13c3.25-1.18,8.26-2.66,17.71-2.66,12.1,0,20.36,2.36,25.67,5.9L442.34,213.64c-15.64,4.43-37.48,5.9-58.43,5.9L335.52,73.77c5.31-3.54,13.57-5.9,26-5.9,8.85,0,15,1.47,17.71,2.66l23.9,76.13a298.82,298.82,0,0,1,9.15,38.07Z"/><path class="cls-1" d="M543.85,157c1.77,20.66,16.52,30.69,45.74,30.69,18.89,0,35.41-4.13,46-8.85.88,11.21-3.84,25.67-10.62,33.34-9.74,5.61-26.26,10.33-46.62,10.33-51.64,0-79.08-29.8-79.08-77.61,0-49.28,29.51-81.15,75.84-81.15,43.08,0,62.85,26.56,62.85,65.51A91.12,91.12,0,0,1,633.56,157Zm54-31c2.36-15.34-3.25-30.39-24.49-30.39-18.3,0-29.51,11.8-30.69,30.39Z"/><path class="cls-1" d="M713.82,214.23c-3.84,2.07-10.92,3.54-21.25,3.54s-17.41-1.47-21.54-3.54V73.48c8-4.43,20.66-6.79,34.82-6.79l2.36,24.2h2.36c7.08-15.34,22.13-27.15,49-27.15,22.43,0,49,8,49,56.66v93.84c-3.84,2.07-10.92,3.54-21.25,3.54s-17.41-1.47-21.54-3.54V128.07c0-15.34-5.31-25.08-22.72-25.08-15.34,0-23.9,7.67-29.21,16.82Z"/><path class="cls-1" d="M942.22,198.89c-6.49,13.28-20.36,23.61-46.33,23.61-23,0-49-8-49-57v-90c10-5.61,24.2-8.85,42.79-8.85v91.48c0,15.93,5,24.79,22.13,24.79,13.87,0,23-5.9,28.33-12.69V72c4.13-2.07,11.21-3.54,21.54-3.54s17.41,1.48,21.25,3.54V212.76c-7.67,4.43-19.77,6.79-33.34,6.79l-5-20.66Z"/><path class="cls-1" d="M1059.66,157c1.77,20.66,16.52,30.69,45.74,30.69,18.89,0,35.41-4.13,46-8.85.88,11.21-3.84,25.67-10.62,33.34-9.74,5.61-26.26,10.33-46.62,10.33-51.64,0-79.08-29.8-79.08-77.61,0-49.28,29.51-81.15,75.84-81.15,43.08,0,62.85,26.56,62.85,65.51a91.06,91.06,0,0,1-4.43,27.74Zm54-31c2.36-15.34-3.25-30.39-24.49-30.39-18.3,0-29.51,11.8-30.69,30.39Z"/><path class="cls-1" d="M1296.62,39.25c-41.61,0-70.23,21.25-70.23,72.59s28.33,71.71,68.16,71.71a134.28,134.28,0,0,0,49.57-10c.59,10.92-4.72,29.8-11.8,39.25-12.69,6.2-31,10.62-51.64,10.62-63.15,0-100.33-40.72-100.33-108.59C1180.36,41.61,1223.73,0,1287.47,0c16.82,0,33.93,3,44.85,9.44,6.79,9.74,9.74,27.15,8.26,40.13C1326.42,42.79,1313.44,39.25,1296.62,39.25Z"/><path class="cls-1" d="M1448.89,201.25c-6.49,13-20.36,21.25-40.72,21.25-26,0-48.39-13-48.39-47.21,0-36,26-49.87,60.2-49.87a88.2,88.2,0,0,1,26.85,3.84v-4.13c0-18-8.85-24.49-28.33-24.49A96.13,96.13,0,0,0,1371.28,113c-3.54-11.51-2.07-29.8,4.72-39.54,10.63-5.9,28.92-9.74,50.76-9.74,42.49,0,62.85,15,62.85,58.72v51.05c0,9.15,4.13,11.21,10,11.21a23.05,23.05,0,0,0,12.69-3.54c1.18,11.8-2.36,26.26-7.67,34.52-6.2,4.13-14.46,6.79-24.49,6.79-17.11,0-26-7.38-28.92-21.25Zm-1.18-43.67a52,52,0,0,0-19.48-3.54c-17.11,0-25.67,7.08-25.67,18.3,0,11.51,8.56,15.64,20.36,15.64,9.44,0,18.89-3,24.79-10.33Z"/><path class="cls-1" d="M1579.38,106h39.39c1.78-3.56,2.67-11,2.67-18.41s-.89-14.84-2.67-18.41h-39.39V25.22c-16.59.3-32.28,4.16-42.95,11.87V69.15h-16.88c-3.85,9.5-5.92,24-5.92,36.81h22.81l-.58,104.3c0,11.49-2,26.18-8.57,30.79-31.27,22.13-94.87,11.42-153.23,5.35-83.84-8.72-156.25-20.18-168.28,26.21-6.36,24.51,1.9,40.17,9.93,49,16.15,17.73,44.65,21.77,67.27,21.77a206.71,206.71,0,0,0,31.76-2.49,20.44,20.44,0,0,0,16.9-23.44c-1.8-11.14-12.35-19-23.43-16.94-23.25,4.34-56.07,14-68.66.17-4.26-4.67-3.52-16.14,0-19.69,9.36-14,69.61-8.65,130.27-.46,67,7,136.37,16.81,175.76-2.89,15.42-7.71,33.8-25.66,33.8-67.38Z"/></g></g></g></svg>